<svg xmlns="http://www.w3.org/2000/svg" width="800" height="300" viewBox="0 0 800 300">
  <defs>
    <linearGradient id="bg" x1="0%" y1="0%" x2="100%" y2="100%">
      <stop offset="0%" stop-color="#131318"/>
      <stop offset="100%" stop-color="#18181E"/>
    </linearGradient>
  </defs>
  <rect width="800" height="300" fill="url(#bg)"/>
  <!-- query input -->
  <rect x="40" y="70" width="160" height="36" rx="8" fill="#1e1e2a" stroke="#6C63FF" stroke-width="1.5"/>
  <text x="120" y="93" text-anchor="middle" font-family="monospace" font-size="10" fill="#EAEAEC">Query: "What is..."</text>
  <!-- arrow down -->
  <line x1="120" y1="108" x2="120" y2="138" stroke="#6C63FF" stroke-width="1.5"/>
  <polygon points="116,138 120,148 124,138" fill="#6C63FF"/>
  <!-- embed block -->
  <rect x="60" y="150" width="120" height="30" rx="6" fill="#6C63FF" fill-opacity="0.2" stroke="#6C63FF" stroke-width="1"/>
  <text x="120" y="169" text-anchor="middle" font-family="monospace" font-size="9" fill="#9B8FFF">Embed → Vector</text>
  <!-- arrow right -->
  <line x1="182" y1="165" x2="232" y2="165" stroke="#6C63FF" stroke-width="1.5" stroke-dasharray="4 3"/>
  <polygon points="232,161 240,165 232,169" fill="#6C63FF"/>
  <!-- vector store -->
  <rect x="240" y="100" width="120" height="130" rx="8" fill="#1e1e2a" stroke="#2A2A35" stroke-width="1.5"/>
  <text x="300" y="120" text-anchor="middle" font-family="monospace" font-size="9" fill="#8B8B95">VECTOR DB</text>
  <line x1="252" y1="128" x2="348" y2="128" stroke="#2A2A35" stroke-width="1"/>
  <rect x="256" y="136" width="88" height="10" rx="3" fill="#6C63FF" fill-opacity="0.5"/>
  <rect x="256" y="152" width="70" height="10" rx="3" fill="#6C63FF" fill-opacity="0.35"/>
  <rect x="256" y="168" width="80" height="10" rx="3" fill="#6C63FF" fill-opacity="0.4"/>
  <rect x="256" y="184" width="60" height="10" rx="3" fill="#00D4AA" fill-opacity="0.6"/>
  <rect x="256" y="200" width="76" height="10" rx="3" fill="#6C63FF" fill-opacity="0.25"/>
  <!-- arrow: top match -->
  <line x1="362" y1="141" x2="412" y2="141" stroke="#00D4AA" stroke-width="1.5"/>
  <polygon points="412,137 420,141 412,145" fill="#00D4AA"/>
  <text x="364" y="135" font-family="monospace" font-size="8" fill="#00D4AA">top-k</text>
  <!-- LLM block -->
  <rect x="420" y="110" width="120" height="100" rx="8" fill="#1e1e2a" stroke="#00D4AA" stroke-width="1.5"/>
  <text x="480" y="135" text-anchor="middle" font-size="20">🧠</text>
  <text x="480" y="158" text-anchor="middle" font-family="monospace" font-size="9" fill="#8B8B95">LLM</text>
  <text x="480" y="174" text-anchor="middle" font-family="monospace" font-size="9" fill="#00D4AA">+ Context</text>
  <text x="480" y="190" text-anchor="middle" font-family="monospace" font-size="9" fill="#00D4AA">+ Citation</text>
  <!-- arrow right -->
  <line x1="542" y1="160" x2="582" y2="160" stroke="#00D4AA" stroke-width="1.5"/>
  <polygon points="582,156 590,160 582,164" fill="#00D4AA"/>
  <!-- output -->
  <rect x="590" y="110" width="170" height="100" rx="8" fill="#1e1e2a" stroke="#2A2A35" stroke-width="1"/>
  <text x="675" y="133" text-anchor="middle" font-family="monospace" font-size="9" fill="#8B8B95">GROUNDED ANSWER</text>
  <line x1="602" y1="140" x2="748" y2="140" stroke="#2A2A35" stroke-width="1"/>
  <text x="608" y="157" font-family="monospace" font-size="8" fill="#EAEAEC">Answer: "..."</text>
  <text x="608" y="172" font-family="monospace" font-size="8" fill="#8B8B95">Source: doc_3.pdf</text>
  <text x="608" y="187" font-family="monospace" font-size="8" fill="#8B8B95">Confidence: 0.94</text>
  <!-- title badge -->
  <rect x="300" y="248" width="200" height="28" rx="14" fill="#00D4AA" fill-opacity="0.12" stroke="#00D4AA" stroke-width="1" stroke-opacity="0.4"/>
  <text x="400" y="267" text-anchor="middle" font-family="monospace" font-size="11" fill="#00D4AA" letter-spacing="1">RAG · SEMANTIC SEARCH</text>
</svg>
