<svg xmlns="http://www.w3.org/2000/svg" width="800" height="300" viewBox="0 0 800 300">
  <defs>
    <linearGradient id="bg" x1="0%" y1="0%" x2="100%" y2="100%">
      <stop offset="0%" stop-color="#131318"/>
      <stop offset="100%" stop-color="#18181E"/>
    </linearGradient>
  </defs>
  <rect width="800" height="300" fill="url(#bg)"/>
  <!-- mock camera frame -->
  <rect x="60" y="50" width="380" height="210" rx="8" fill="#0C0C0F" stroke="#2A2A35" stroke-width="1.5"/>
  <!-- bounding box 1 - person -->
  <rect x="140" y="80" width="100" height="150" rx="3" fill="none" stroke="#6C63FF" stroke-width="2"/>
  <rect x="140" y="80" width="80" height="16" rx="2" fill="#6C63FF"/>
  <text x="148" y="92" font-family="monospace" font-size="9" fill="#fff">person 0.97</text>
  <!-- bounding box 2 - object -->
  <rect x="270" y="110" width="120" height="90" rx="3" fill="none" stroke="#00D4AA" stroke-width="2"/>
  <rect x="270" y="110" width="95" height="16" rx="2" fill="#00D4AA"/>
  <text x="278" y="122" font-family="monospace" font-size="9" fill="#0C0C0F">vehicle 0.91</text>
  <!-- corner decorations on frame -->
  <polyline points="60,50 60,70" stroke="#6C63FF" stroke-width="2" fill="none"/>
  <polyline points="60,50 80,50" stroke="#6C63FF" stroke-width="2" fill="none"/>
  <polyline points="440,50 440,70" stroke="#6C63FF" stroke-width="2" fill="none"/>
  <polyline points="420,50 440,50" stroke="#6C63FF" stroke-width="2" fill="none"/>
  <polyline points="60,260 60,240" stroke="#6C63FF" stroke-width="2" fill="none"/>
  <polyline points="60,260 80,260" stroke="#6C63FF" stroke-width="2" fill="none"/>
  <polyline points="440,260 440,240" stroke="#6C63FF" stroke-width="2" fill="none"/>
  <polyline points="420,260 440,260" stroke="#6C63FF" stroke-width="2" fill="none"/>
  <!-- right panel -->
  <rect x="470" y="60" width="270" height="180" rx="10" fill="#18181E" stroke="#2A2A35" stroke-width="1"/>
  <text x="605" y="85" text-anchor="middle" font-family="monospace" font-size="10" fill="#8B8B95" letter-spacing="1">DETECTION STATS</text>
  <line x1="480" y1="95" x2="730" y2="95" stroke="#2A2A35" stroke-width="1"/>
  <!-- stat bars -->
  <text x="490" y="115" font-family="monospace" font-size="9" fill="#8B8B95">Precision</text>
  <rect x="570" y="105" width="120" height="8" rx="4" fill="#2A2A35"/>
  <rect x="570" y="105" width="103" height="8" rx="4" fill="#6C63FF" fill-opacity="0.8"/>
  <text x="700" y="115" font-family="monospace" font-size="9" fill="#6C63FF">86%</text>
  <text x="490" y="135" font-family="monospace" font-size="9" fill="#8B8B95">Recall</text>
  <rect x="570" y="125" width="120" height="8" rx="4" fill="#2A2A35"/>
  <rect x="570" y="125" width="110" height="8" rx="4" fill="#00D4AA" fill-opacity="0.8"/>
  <text x="700" y="135" font-family="monospace" font-size="9" fill="#00D4AA">92%</text>
  <text x="490" y="155" font-family="monospace" font-size="9" fill="#8B8B95">FPS</text>
  <rect x="570" y="145" width="120" height="8" rx="4" fill="#2A2A35"/>
  <rect x="570" y="145" width="96" height="8" rx="4" fill="#9B8FFF" fill-opacity="0.8"/>
  <text x="700" y="155" font-family="monospace" font-size="9" fill="#9B8FFF">~30</text>
  <!-- model badge -->
  <rect x="490" y="175" width="65" height="22" rx="6" fill="#6C63FF" fill-opacity="0.18" stroke="#6C63FF" stroke-width="1"/>
  <text x="523" y="190" text-anchor="middle" font-family="monospace" font-size="9" fill="#9B8FFF">YOLOv8</text>
  <rect x="565" y="175" width="65" height="22" rx="6" fill="#00D4AA" fill-opacity="0.12" stroke="#00D4AA" stroke-width="1"/>
  <text x="598" y="190" text-anchor="middle" font-family="monospace" font-size="9" fill="#00D4AA">OpenCV</text>
  <rect x="640" y="175" width="50" height="22" rx="6" fill="#2A2A35" stroke="#3A3A48" stroke-width="1"/>
  <text x="665" y="190" text-anchor="middle" font-family="monospace" font-size="9" fill="#8B8B95">Python</text>
  <!-- title badge -->
  <rect x="310" y="248" width="180" height="28" rx="14" fill="#6C63FF" fill-opacity="0.15" stroke="#6C63FF" stroke-width="1" stroke-opacity="0.4"/>
  <text x="400" y="267" text-anchor="middle" font-family="monospace" font-size="11" fill="#6C63FF" letter-spacing="1">COMPUTER VISION</text>
</svg>
